<mxfile host="app.diagrams.net" agent="Mozilla/5.0 (Windows NT 10.0; Win64; x64) AppleWebKit/537.36 (KHTML, like Gecko) Chrome/135.0.0.0 Safari/537.36" version="26.2.13">
  <diagram name="Page-1" id="OtNDVNuHRLUTiC2iikyV">
    <mxGraphModel dx="3480" dy="2073" grid="0" gridSize="10" guides="1" tooltips="1" connect="1" arrows="1" fold="1" page="1" pageScale="1" pageWidth="850" pageHeight="1100" background="#FFFFFF" math="0" shadow="0">
      <root>
        <mxCell id="0" />
        <mxCell id="1" parent="0" />
        <mxCell id="SnrJZG7Lg1qoziRaMF_--9" value="" style="edgeStyle=orthogonalEdgeStyle;rounded=0;orthogonalLoop=1;jettySize=auto;html=1;fontSize=20;strokeWidth=3;fontStyle=1" edge="1" parent="1" source="SnrJZG7Lg1qoziRaMF_--4" target="SnrJZG7Lg1qoziRaMF_--5">
          <mxGeometry relative="1" as="geometry" />
        </mxCell>
        <mxCell id="SnrJZG7Lg1qoziRaMF_--4" value="Netlist" style="rounded=1;whiteSpace=wrap;html=1;fontSize=20;strokeWidth=3;fontStyle=1;fillColor=#d5e8d4;strokeColor=#82b366;" vertex="1" parent="1">
          <mxGeometry x="32" y="253" width="120" height="60" as="geometry" />
        </mxCell>
        <mxCell id="SnrJZG7Lg1qoziRaMF_--11" style="rounded=0;orthogonalLoop=1;jettySize=auto;html=1;entryX=0;entryY=0.5;entryDx=0;entryDy=0;fontSize=20;strokeWidth=3;fontStyle=1" edge="1" parent="1" source="SnrJZG7Lg1qoziRaMF_--5" target="SnrJZG7Lg1qoziRaMF_--6">
          <mxGeometry relative="1" as="geometry" />
        </mxCell>
        <mxCell id="SnrJZG7Lg1qoziRaMF_--5" value="Physical Design" style="rounded=1;whiteSpace=wrap;html=1;fontSize=20;strokeWidth=3;fontStyle=1;fillColor=#f8cecc;strokeColor=#b85450;" vertex="1" parent="1">
          <mxGeometry x="192" y="253" width="280" height="60" as="geometry" />
        </mxCell>
        <mxCell id="SnrJZG7Lg1qoziRaMF_--12" value="" style="edgeStyle=orthogonalEdgeStyle;rounded=0;orthogonalLoop=1;jettySize=auto;html=1;dashed=1;endArrow=none;startFill=0;" edge="1" parent="1" source="SnrJZG7Lg1qoziRaMF_--6" target="SnrJZG7Lg1qoziRaMF_--8">
          <mxGeometry relative="1" as="geometry" />
        </mxCell>
        <mxCell id="SnrJZG7Lg1qoziRaMF_--6" value="GDSII /&amp;nbsp;&lt;span style=&quot;background-color: transparent; color: light-dark(rgb(0, 0, 0), rgb(255, 255, 255));&quot;&gt;OASIS&lt;/span&gt;" style="rounded=1;whiteSpace=wrap;html=1;fontSize=20;strokeWidth=3;fontStyle=1;fillColor=#d5e8d4;strokeColor=#82b366;" vertex="1" parent="1">
          <mxGeometry x="512" y="253" width="246" height="60" as="geometry" />
        </mxCell>
        <mxCell id="SnrJZG7Lg1qoziRaMF_--8" value="&lt;div&gt;Graphic Database System&lt;/div&gt;&lt;div&gt;Open artwork system interchange standard&lt;/div&gt;" style="text;html=1;align=center;verticalAlign=middle;resizable=0;points=[];autosize=1;strokeColor=none;fillColor=none;fontSize=20;" vertex="1" parent="1">
          <mxGeometry x="435" y="140" width="400" height="60" as="geometry" />
        </mxCell>
        <mxCell id="SnrJZG7Lg1qoziRaMF_--52" value="" style="group" vertex="1" connectable="0" parent="1">
          <mxGeometry x="40" y="407" width="2480" height="573" as="geometry" />
        </mxCell>
        <mxCell id="SnrJZG7Lg1qoziRaMF_--13" value="" style="rounded=1;whiteSpace=wrap;html=1;fontSize=20;strokeWidth=3;fillColor=#ffcd28;strokeColor=#d79b00;gradientColor=#ffa500;" vertex="1" parent="SnrJZG7Lg1qoziRaMF_--52">
          <mxGeometry y="20" width="400" height="533" as="geometry" />
        </mxCell>
        <mxCell id="SnrJZG7Lg1qoziRaMF_--14" value="Design Import" style="rounded=1;whiteSpace=wrap;html=1;fontSize=20;strokeWidth=3;fillColor=#dae8fc;strokeColor=#6c8ebf;gradientColor=#7ea6e0;" vertex="1" parent="SnrJZG7Lg1qoziRaMF_--52">
          <mxGeometry x="130" y="88" width="270" height="55" as="geometry" />
        </mxCell>
        <mxCell id="SnrJZG7Lg1qoziRaMF_--15" value="Create and Load Floorplan" style="rounded=1;whiteSpace=wrap;html=1;fontSize=20;strokeWidth=3;fillColor=#dae8fc;strokeColor=#6c8ebf;gradientColor=#7ea6e0;" vertex="1" parent="SnrJZG7Lg1qoziRaMF_--52">
          <mxGeometry x="130" y="163" width="270" height="55" as="geometry" />
        </mxCell>
        <mxCell id="SnrJZG7Lg1qoziRaMF_--16" value="Timing, Mode Setup" style="rounded=1;whiteSpace=wrap;html=1;fontSize=20;strokeWidth=3;fillColor=#dae8fc;strokeColor=#6c8ebf;gradientColor=#7ea6e0;" vertex="1" parent="SnrJZG7Lg1qoziRaMF_--52">
          <mxGeometry x="130" y="243" width="270" height="55" as="geometry" />
        </mxCell>
        <mxCell id="SnrJZG7Lg1qoziRaMF_--17" value="Design Initialization" style="text;html=1;align=center;verticalAlign=middle;resizable=0;points=[];autosize=1;strokeColor=none;fillColor=none;fontSize=31;strokeWidth=3;fontStyle=1" vertex="1" parent="SnrJZG7Lg1qoziRaMF_--52">
          <mxGeometry x="55" y="20" width="290" height="50" as="geometry" />
        </mxCell>
        <mxCell id="SnrJZG7Lg1qoziRaMF_--18" value="" style="rounded=1;whiteSpace=wrap;html=1;fontSize=20;strokeWidth=3;fillColor=#ffcd28;strokeColor=#d79b00;gradientColor=#ffa500;" vertex="1" parent="SnrJZG7Lg1qoziRaMF_--52">
          <mxGeometry x="520" y="20" width="400" height="533" as="geometry" />
        </mxCell>
        <mxCell id="SnrJZG7Lg1qoziRaMF_--19" value="Scan Definition" style="rounded=1;whiteSpace=wrap;html=1;fontSize=20;strokeWidth=3;fillColor=#dae8fc;strokeColor=#6c8ebf;gradientColor=#7ea6e0;" vertex="1" parent="SnrJZG7Lg1qoziRaMF_--52">
          <mxGeometry x="650" y="88" width="270" height="55" as="geometry" />
        </mxCell>
        <mxCell id="SnrJZG7Lg1qoziRaMF_--20" value="JTAG/Cell Placement" style="rounded=1;whiteSpace=wrap;html=1;fontSize=20;strokeWidth=3;fillColor=#dae8fc;strokeColor=#6c8ebf;gradientColor=#7ea6e0;" vertex="1" parent="SnrJZG7Lg1qoziRaMF_--52">
          <mxGeometry x="650" y="163" width="270" height="55" as="geometry" />
        </mxCell>
        <mxCell id="SnrJZG7Lg1qoziRaMF_--45" style="edgeStyle=orthogonalEdgeStyle;rounded=0;orthogonalLoop=1;jettySize=auto;html=1;exitX=0;exitY=1;exitDx=0;exitDy=0;entryX=0;entryY=0.5;entryDx=0;entryDy=0;strokeWidth=3;" edge="1" parent="SnrJZG7Lg1qoziRaMF_--52" source="SnrJZG7Lg1qoziRaMF_--21" target="SnrJZG7Lg1qoziRaMF_--38">
          <mxGeometry relative="1" as="geometry" />
        </mxCell>
        <mxCell id="SnrJZG7Lg1qoziRaMF_--21" value="Pre-CTS Setup Fixing" style="rounded=1;whiteSpace=wrap;html=1;fontSize=20;strokeWidth=3;fillColor=#dae8fc;strokeColor=#6c8ebf;gradientColor=#7ea6e0;" vertex="1" parent="SnrJZG7Lg1qoziRaMF_--52">
          <mxGeometry x="650" y="243" width="270" height="55" as="geometry" />
        </mxCell>
        <mxCell id="SnrJZG7Lg1qoziRaMF_--22" value="Pre CTS Flow" style="text;html=1;align=center;verticalAlign=middle;resizable=0;points=[];autosize=1;strokeColor=none;fillColor=none;fontSize=31;strokeWidth=3;fontStyle=1" vertex="1" parent="SnrJZG7Lg1qoziRaMF_--52">
          <mxGeometry x="610" y="21" width="211" height="49" as="geometry" />
        </mxCell>
        <mxCell id="SnrJZG7Lg1qoziRaMF_--23" value="" style="rounded=1;whiteSpace=wrap;html=1;fontSize=20;strokeWidth=3;fillColor=#ffcd28;strokeColor=#d79b00;gradientColor=#ffa500;" vertex="1" parent="SnrJZG7Lg1qoziRaMF_--52">
          <mxGeometry x="1040" y="20" width="400" height="533" as="geometry" />
        </mxCell>
        <mxCell id="SnrJZG7Lg1qoziRaMF_--25" value="CTS" style="rounded=1;whiteSpace=wrap;html=1;fontSize=20;strokeWidth=3;fillColor=#dae8fc;gradientColor=#7ea6e0;strokeColor=#6c8ebf;" vertex="1" parent="SnrJZG7Lg1qoziRaMF_--52">
          <mxGeometry x="1170" y="163" width="270" height="55" as="geometry" />
        </mxCell>
        <mxCell id="SnrJZG7Lg1qoziRaMF_--44" style="edgeStyle=orthogonalEdgeStyle;rounded=0;orthogonalLoop=1;jettySize=auto;html=1;exitX=0;exitY=1;exitDx=0;exitDy=0;entryX=0;entryY=0.5;entryDx=0;entryDy=0;strokeWidth=3;" edge="1" parent="SnrJZG7Lg1qoziRaMF_--52" source="SnrJZG7Lg1qoziRaMF_--26" target="SnrJZG7Lg1qoziRaMF_--39">
          <mxGeometry relative="1" as="geometry" />
        </mxCell>
        <mxCell id="SnrJZG7Lg1qoziRaMF_--26" value="Post CTS&amp;nbsp;&lt;div&gt;Setup and Hold Fixing&lt;/div&gt;" style="rounded=1;whiteSpace=wrap;html=1;fontSize=20;strokeWidth=3;fillColor=#dae8fc;gradientColor=#7ea6e0;strokeColor=#6c8ebf;" vertex="1" parent="SnrJZG7Lg1qoziRaMF_--52">
          <mxGeometry x="1170" y="243" width="270" height="55" as="geometry" />
        </mxCell>
        <mxCell id="SnrJZG7Lg1qoziRaMF_--27" value="Post CTS Flow" style="text;html=1;align=center;verticalAlign=middle;resizable=0;points=[];autosize=1;strokeColor=none;fillColor=none;fontSize=31;strokeWidth=3;fontStyle=1" vertex="1" parent="SnrJZG7Lg1qoziRaMF_--52">
          <mxGeometry x="1123" y="21" width="225" height="49" as="geometry" />
        </mxCell>
        <mxCell id="SnrJZG7Lg1qoziRaMF_--28" value="" style="rounded=1;whiteSpace=wrap;html=1;fontSize=20;strokeWidth=3;fillColor=#ffcd28;strokeColor=#d79b00;gradientColor=#ffa500;" vertex="1" parent="SnrJZG7Lg1qoziRaMF_--52">
          <mxGeometry x="1560" y="20" width="400" height="533" as="geometry" />
        </mxCell>
        <mxCell id="SnrJZG7Lg1qoziRaMF_--29" value="Routing" style="rounded=1;whiteSpace=wrap;html=1;fontSize=20;strokeWidth=3;fillColor=#dae8fc;gradientColor=#7ea6e0;strokeColor=#6c8ebf;" vertex="1" parent="SnrJZG7Lg1qoziRaMF_--52">
          <mxGeometry x="1690" y="88" width="270" height="55" as="geometry" />
        </mxCell>
        <mxCell id="SnrJZG7Lg1qoziRaMF_--30" value="post route setup/hold fixing" style="rounded=1;whiteSpace=wrap;html=1;fontSize=20;strokeWidth=3;fillColor=#dae8fc;gradientColor=#7ea6e0;strokeColor=#6c8ebf;" vertex="1" parent="SnrJZG7Lg1qoziRaMF_--52">
          <mxGeometry x="1690" y="163" width="270" height="55" as="geometry" />
        </mxCell>
        <mxCell id="SnrJZG7Lg1qoziRaMF_--43" style="edgeStyle=orthogonalEdgeStyle;rounded=0;orthogonalLoop=1;jettySize=auto;html=1;exitX=0;exitY=1;exitDx=0;exitDy=0;entryX=0;entryY=0.5;entryDx=0;entryDy=0;strokeWidth=3;" edge="1" parent="SnrJZG7Lg1qoziRaMF_--52" source="SnrJZG7Lg1qoziRaMF_--31" target="SnrJZG7Lg1qoziRaMF_--40">
          <mxGeometry relative="1" as="geometry" />
        </mxCell>
        <mxCell id="SnrJZG7Lg1qoziRaMF_--31" value="post SI setup/hold fixing" style="rounded=1;whiteSpace=wrap;html=1;fontSize=20;strokeWidth=3;fillColor=#dae8fc;gradientColor=#7ea6e0;strokeColor=#6c8ebf;" vertex="1" parent="SnrJZG7Lg1qoziRaMF_--52">
          <mxGeometry x="1690" y="243" width="270" height="55" as="geometry" />
        </mxCell>
        <mxCell id="SnrJZG7Lg1qoziRaMF_--32" value="Post Route Flow" style="text;html=1;align=center;verticalAlign=middle;resizable=0;points=[];autosize=1;strokeColor=none;fillColor=none;fontSize=31;strokeWidth=3;fontStyle=1" vertex="1" parent="SnrJZG7Lg1qoziRaMF_--52">
          <mxGeometry x="1633" y="21" width="245" height="49" as="geometry" />
        </mxCell>
        <mxCell id="SnrJZG7Lg1qoziRaMF_--33" value="" style="rounded=1;whiteSpace=wrap;html=1;fontSize=20;strokeWidth=3;fillColor=#ffcd28;strokeColor=#d79b00;gradientColor=#ffa500;" vertex="1" parent="SnrJZG7Lg1qoziRaMF_--52">
          <mxGeometry x="2080" y="20" width="400" height="533" as="geometry" />
        </mxCell>
        <mxCell id="SnrJZG7Lg1qoziRaMF_--34" value="Add Metal Fill" style="rounded=1;whiteSpace=wrap;html=1;fontSize=20;strokeWidth=3;fillColor=#dae8fc;gradientColor=#7ea6e0;strokeColor=#6c8ebf;" vertex="1" parent="SnrJZG7Lg1qoziRaMF_--52">
          <mxGeometry x="2210" y="88" width="270" height="55" as="geometry" />
        </mxCell>
        <mxCell id="SnrJZG7Lg1qoziRaMF_--35" value="Physical Verification" style="rounded=1;whiteSpace=wrap;html=1;fontSize=20;strokeWidth=3;fillColor=#dae8fc;gradientColor=#7ea6e0;strokeColor=#6c8ebf;" vertex="1" parent="SnrJZG7Lg1qoziRaMF_--52">
          <mxGeometry x="2210" y="163" width="270" height="55" as="geometry" />
        </mxCell>
        <mxCell id="SnrJZG7Lg1qoziRaMF_--42" style="edgeStyle=orthogonalEdgeStyle;rounded=0;orthogonalLoop=1;jettySize=auto;html=1;exitX=0;exitY=1;exitDx=0;exitDy=0;entryX=0;entryY=0.5;entryDx=0;entryDy=0;strokeWidth=3;" edge="1" parent="SnrJZG7Lg1qoziRaMF_--52" source="SnrJZG7Lg1qoziRaMF_--36" target="SnrJZG7Lg1qoziRaMF_--41">
          <mxGeometry relative="1" as="geometry" />
        </mxCell>
        <mxCell id="SnrJZG7Lg1qoziRaMF_--36" value="Timing Analysis" style="rounded=1;whiteSpace=wrap;html=1;fontSize=20;strokeWidth=3;fillColor=#dae8fc;gradientColor=#7ea6e0;strokeColor=#6c8ebf;" vertex="1" parent="SnrJZG7Lg1qoziRaMF_--52">
          <mxGeometry x="2210" y="243" width="270" height="55" as="geometry" />
        </mxCell>
        <mxCell id="SnrJZG7Lg1qoziRaMF_--37" value="Signoff" style="text;html=1;align=center;verticalAlign=middle;resizable=0;points=[];autosize=1;strokeColor=none;fillColor=none;fontSize=31;strokeWidth=3;fontStyle=1" vertex="1" parent="SnrJZG7Lg1qoziRaMF_--52">
          <mxGeometry x="2243" y="21" width="114" height="49" as="geometry" />
        </mxCell>
        <mxCell id="SnrJZG7Lg1qoziRaMF_--38" value="&lt;font style=&quot;font-size: 18px;&quot;&gt;Timing Met&lt;/font&gt;" style="rhombus;whiteSpace=wrap;html=1;strokeWidth=3;fillColor=#f8cecc;gradientColor=#ea6b66;strokeColor=#b85450;" vertex="1" parent="SnrJZG7Lg1qoziRaMF_--52">
          <mxGeometry x="705" y="333" width="160" height="150" as="geometry" />
        </mxCell>
        <mxCell id="SnrJZG7Lg1qoziRaMF_--39" value="&lt;font style=&quot;font-size: 18px;&quot;&gt;Timing Met&lt;/font&gt;" style="rhombus;whiteSpace=wrap;html=1;strokeWidth=3;fillColor=#f8cecc;gradientColor=#ea6b66;strokeColor=#b85450;" vertex="1" parent="SnrJZG7Lg1qoziRaMF_--52">
          <mxGeometry x="1225" y="343" width="160" height="150" as="geometry" />
        </mxCell>
        <mxCell id="SnrJZG7Lg1qoziRaMF_--40" value="&lt;font style=&quot;font-size: 18px;&quot;&gt;Timing Met&lt;/font&gt;" style="rhombus;whiteSpace=wrap;html=1;strokeWidth=3;fillColor=#f8cecc;gradientColor=#ea6b66;strokeColor=#b85450;" vertex="1" parent="SnrJZG7Lg1qoziRaMF_--52">
          <mxGeometry x="1745" y="333" width="160" height="150" as="geometry" />
        </mxCell>
        <mxCell id="SnrJZG7Lg1qoziRaMF_--41" value="&lt;font style=&quot;font-size: 18px;&quot;&gt;Timing Met&lt;/font&gt;" style="rhombus;whiteSpace=wrap;html=1;strokeWidth=3;fillColor=#f8cecc;gradientColor=#ea6b66;strokeColor=#b85450;" vertex="1" parent="SnrJZG7Lg1qoziRaMF_--52">
          <mxGeometry x="2265" y="333" width="160" height="150" as="geometry" />
        </mxCell>
        <mxCell id="SnrJZG7Lg1qoziRaMF_--46" style="edgeStyle=orthogonalEdgeStyle;rounded=0;orthogonalLoop=1;jettySize=auto;html=1;exitX=0.5;exitY=1;exitDx=0;exitDy=0;entryX=0.493;entryY=-0.012;entryDx=0;entryDy=0;entryPerimeter=0;strokeWidth=3;" edge="1" parent="SnrJZG7Lg1qoziRaMF_--52" source="SnrJZG7Lg1qoziRaMF_--38" target="SnrJZG7Lg1qoziRaMF_--27">
          <mxGeometry relative="1" as="geometry" />
        </mxCell>
        <mxCell id="SnrJZG7Lg1qoziRaMF_--47" style="edgeStyle=orthogonalEdgeStyle;rounded=0;orthogonalLoop=1;jettySize=auto;html=1;exitX=0.5;exitY=1;exitDx=0;exitDy=0;entryX=0.673;entryY=0.012;entryDx=0;entryDy=0;entryPerimeter=0;strokeWidth=3;" edge="1" parent="SnrJZG7Lg1qoziRaMF_--52" source="SnrJZG7Lg1qoziRaMF_--39" target="SnrJZG7Lg1qoziRaMF_--32">
          <mxGeometry relative="1" as="geometry" />
        </mxCell>
        <mxCell id="SnrJZG7Lg1qoziRaMF_--50" style="edgeStyle=orthogonalEdgeStyle;rounded=0;orthogonalLoop=1;jettySize=auto;html=1;exitX=0.5;exitY=1;exitDx=0;exitDy=0;entryX=0.538;entryY=0.011;entryDx=0;entryDy=0;entryPerimeter=0;strokeWidth=3;" edge="1" parent="SnrJZG7Lg1qoziRaMF_--52" source="SnrJZG7Lg1qoziRaMF_--13" target="SnrJZG7Lg1qoziRaMF_--22">
          <mxGeometry relative="1" as="geometry">
            <Array as="points">
              <mxPoint x="200" y="573" />
              <mxPoint x="456" y="573" />
              <mxPoint x="456" />
              <mxPoint x="724" />
            </Array>
          </mxGeometry>
        </mxCell>
        <mxCell id="SnrJZG7Lg1qoziRaMF_--51" style="edgeStyle=orthogonalEdgeStyle;rounded=0;orthogonalLoop=1;jettySize=auto;html=1;exitX=0.5;exitY=1;exitDx=0;exitDy=0;entryX=0.599;entryY=-0.011;entryDx=0;entryDy=0;entryPerimeter=0;strokeWidth=3;" edge="1" parent="SnrJZG7Lg1qoziRaMF_--52" source="SnrJZG7Lg1qoziRaMF_--40" target="SnrJZG7Lg1qoziRaMF_--37">
          <mxGeometry relative="1" as="geometry">
            <Array as="points">
              <mxPoint x="1825" y="503" />
              <mxPoint x="2040" y="503" />
              <mxPoint x="2040" />
              <mxPoint x="2312" />
            </Array>
          </mxGeometry>
        </mxCell>
      </root>
    </mxGraphModel>
  </diagram>
</mxfile>
